# xmcd CD database file
#
# Track frame offsets:
#	150
#	18228
#	37005
#	54105
#	74655
#	98205
#	111930
#	128655
#
# Disc length: 1966 seconds
#
# Revision: 1
# Processed by: cddbd v1.5.1PL0 Copyright (c) Steve Scherf et al.
# Submitted via: CDex 1.51
#
DISCID=6707ac08
DTITLE=Various Artist - compilation 3
DYEAR=2003
DGENRE=Other
TTITLE0=Journey song (eufonius version) - eufonius
TTITLE1=光の果実 - eufonius
TTITLE2=7人。(tooteakey reshape) - 空色絵本
TTITLE3=陽炎 - 空色絵本
TTITLE4=エルムの丘 - Maple Leaf
TTITLE5=EVER GARACE - refio
TTITLE6=こころのうた - refio
TTITLE7=Il Parco - yoshihisa nagao
EXTD=YEAR: 2003
EXTT0=
EXTT1=
EXTT2=
EXTT3=
EXTT4=
EXTT5=
EXTT6=
EXTT7=
PLAYORDER=
